<svg xmlns="http://www.w3.org/2000/svg" version="1.1" viewBox="0 0 69.005 70.37234042553192" style="max-height: 500px" width="69.005" height="70.37234042553192">
<path transform="translate(289.6875,27.125)" fill="#111A39" d="M0 0 C0.763125 0.28875 1.52625 0.5775 2.3125 0.875 C3.3025 0.215 4.2925 -0.445 5.3125 -1.125 C9.2098724 -1.63335292 10.81806726 -1.45462183 14.125 0.75 C16.37829371 2.93891389 17.25489455 3.82819133 17.42602539 6.93798828 C17.42078857 7.76540527 17.41555176 8.59282227 17.41015625 9.4453125 C17.40693359 10.34121094 17.40371094 11.23710938 17.40039062 12.16015625 C17.38782227 13.56587891 17.38782227 13.56587891 17.375 15 C17.37048828 15.94488281 17.36597656 16.88976562 17.36132812 17.86328125 C17.34952357 20.20058387 17.33305759 22.53776061 17.3125 24.875 C15.0025 24.875 12.6925 24.875 10.3125 24.875 C9.8175 15.47 9.8175 15.47 9.3125 5.875 C7.6625 6.205 6.0125 6.535 4.3125 6.875 C2.726631 10.046738 2.93383555 13.51013822 2.75 17 C2.70681641 17.75410156 2.66363281 18.50820313 2.61914062 19.28515625 C2.5130168 21.14821888 2.41224999 23.01158524 2.3125 24.875 C0.0025 24.875 -2.3075 24.875 -4.6875 24.875 C-5.0175 18.605 -5.3475 12.335 -5.6875 5.875 C-7.6675 6.205 -9.6475 6.535 -11.6875 6.875 C-12.0175 12.815 -12.3475 18.755 -12.6875 24.875 C-14.9975 24.875 -17.3075 24.875 -19.6875 24.875 C-19.6875 16.625 -19.6875 8.375 -19.6875 -0.125 C-17.02083333 -0.125 -14.35416667 -0.125 -11.6875 -0.125 C-7.47496407 -1.52917864 -4.13853536 -1.73241015 0 0 Z"/>
<path transform="translate(96,20.25)" fill="#111A39" d="M0 0 C2.12640522 1.86060457 3.1095674 3.0787022 4 5.75 C4 7.07 4 8.39 4 9.75 C1.36 9.75 -1.28 9.75 -4 9.75 C-4 8.76 -4 7.77 -4 6.75 C-6.31 6.75 -8.62 6.75 -11 6.75 C-11 7.74 -11 8.73 -11 9.75 C-10.33613281 9.92015625 -9.67226562 10.0903125 -8.98828125 10.265625 C-3.85730622 11.67383421 0.13937572 12.88937572 4 16.75 C5.74989713 20.24979425 4.97392321 24.05172402 4 27.75 C0.56109575 31.36989921 -2.33965128 32.62469066 -7.3125 33 C-12.20994504 32.66796983 -15.39276382 31.35723618 -18.875 27.875 C-20.22312842 25.3285352 -20.23681032 23.59172382 -20 20.75 C-17.36 20.75 -14.72 20.75 -12 20.75 C-11.67 21.74 -11.34 22.73 -11 23.75 C-8.69 23.75 -6.38 23.75 -4 23.75 C-4 22.76 -4 21.77 -4 20.75 C-4.90363281 20.43546875 -5.80726562 20.1209375 -6.73828125 19.796875 C-7.91777344 19.36890625 -9.09726563 18.9409375 -10.3125 18.5 C-11.48425781 18.08234375 -12.65601562 17.6646875 -13.86328125 17.234375 C-17.07239671 15.71574004 -18.40649625 14.88485646 -20 11.75 C-20.1796875 9.49609375 -20.1796875 9.49609375 -19.875 7.1875 C-19.78992188 6.42308594 -19.70484375 5.65867187 -19.6171875 4.87109375 C-18.88537836 2.3560788 -18.0448028 1.35942613 -16 -0.25 C-10.74605226 -2.00131591 -5.13561649 -2.1398402 0 0 Z"/>
<path transform="translate(144,27)" fill="#111A39" d="M0 0 C1.98 0 3.96 0 6 0 C6 8.25 6 16.5 6 25 C3.03 25 0.06 25 -3 25 C-3.66 25.33 -4.32 25.66 -5 26 C-9.63430819 26.12976063 -13.72394994 25.66582449 -17.4375 22.75 C-21.23776643 18.6716653 -22.05267311 16.65920295 -21.875 11.0625 C-21.1083487 6.29122312 -19.09550208 2.64646592 -15.25 -0.375 C-10.09246811 -1.80764775 -5.12914342 -1.07981967 0 0 Z M-12.375 7.5625 C-14.37993521 10.03401544 -14.37993521 10.03401544 -13.75 13.75 C-13.5025 14.8225 -13.255 15.895 -13 17 C-9.53988627 18.52888746 -7.78719764 19.25669488 -4.125 18.0625 C-1.64696096 16.07819403 -1.64696096 16.07819403 -1.5 12.5 C-1.74563969 9.12746377 -1.74563969 9.12746377 -3.1875 7.0625 C-6.69156094 5.00839531 -9.04193944 5.369697 -12.375 7.5625 Z"/>
<path transform="translate(200,27)" fill="#111A39" d="M0 0 C1.98 0 3.96 0 6 0 C6 8.25 6 16.5 6 25 C3.36 25 0.72 25 -2 25 C-3.54605278 25.19741905 -5.08950615 25.42008253 -6.625 25.6875 C-10.92682282 26.19838774 -13.36905019 25.5332208 -17 23 C-19.74228344 20.69070868 -20.81849156 19.01081424 -21.453125 15.4765625 C-21.76060289 10.37522483 -21.51512576 6.8913862 -18.1875 2.875 C-13.21520505 -2.25689947 -6.47167075 -1.72577887 0 0 Z M-12.375 7.625 C-14.28822408 9.94163123 -14.28822408 9.94163123 -14 13.0625 C-13.20642601 16.02812617 -13.20642601 16.02812617 -11.25 17.9375 C-9.02851942 19.18236728 -9.02851942 19.18236728 -6.4375 19 C-3.82868708 18.14491068 -3.82868708 18.14491068 -2.0625 15.75 C-0.71159918 13.044754 -0.71159918 13.044754 -1.6875 10.3125 C-2.91932102 7.90339298 -2.91932102 7.90339298 -5 6 C-8.29268932 5.48010169 -9.60082862 5.72688274 -12.375 7.625 Z"/>
<path transform="translate(257,26)" fill="#111A39" d="M0 0 C4.38253554 2.19126777 7.16669816 4.41674539 9 9 C9.70599788 13.70665253 9.45316426 17.0588127 7.375 21.375 C3.78100622 25.34730892 0.82025411 26.80497277 -4.5 27.375 C-9.82025411 26.80497277 -12.78100622 25.34730892 -16.375 21.375 C-18.45267558 17.05982763 -18.83497038 13.70619668 -18 9 C-14.05851001 1.11702002 -8.50136152 -1.34942246 0 0 Z M-9.4375 9.125 C-11.35237426 11.93692002 -11.35237426 11.93692002 -10.4375 15.1875 C-9.1645271 18.24307478 -9.1645271 18.24307478 -6 20 C-2.67759676 19.6758631 -1.39223697 19.39223697 1 17 C1.47899838 12.31683466 1.47899838 12.31683466 -0.1875 8.0625 C-3.98172571 5.83829872 -6.17253094 6.27861672 -9.4375 9.125 Z"/>
<path transform="translate(156,18)" fill="#111A39" d="M0 0 C2.31 0 4.62 0 7 0 C7.33 5.61 7.66 11.22 8 17 C8.639375 15.68 9.27875 14.36 9.9375 13 C11.2890625 10.78125 11.2890625 10.78125 13 9 C16.10352525 8.29418155 18.87228538 8.5093781 22 9 C19.7094795 13.02815675 17.39229245 17.03112513 15 21 C15.5775 21.85464844 16.155 22.70929687 16.75 23.58984375 C17.50012058 24.70564811 18.25011404 25.82153795 19 26.9375 C19.3815625 27.50146484 19.763125 28.06542969 20.15625 28.64648438 C23 32.88671875 23 32.88671875 23 34 C19.84005495 34.56879011 17.13414169 34.7797133 14 34 C11.40155657 31.30706772 9.6833009 28.32699471 8 25 C7.67 27.97 7.34 30.94 7 34 C4.69 34 2.38 34 0 34 C0 22.78 0 11.56 0 0 Z"/>
<path transform="translate(26,11)" fill="#01ACA7" d="M0 0 C0.66 0 1.32 0 2 0 C2 3.3 2 6.6 2 10 C2.99 10 3.98 10 5 10 C5.33 21.22 5.66 32.44 6 44 C5.01 44 4.02 44 3 44 C3 43.34 3 42.68 3 42 C2.34 41.67 1.68 41.34 1 41 C1.33 43.64 1.66 46.28 2 49 C3.155 49.495 4.31 49.99 5.5 50.5 C6.1496875 50.7784375 6.799375 51.056875 7.46875 51.34375 C15.64971519 53.46474098 21.3644282 50.98520873 28.75 47.5625 C30.59785681 46.72802524 32.44677609 45.89589823 34.296875 45.06640625 C35.10479492 44.69459229 35.91271484 44.32277832 36.74511719 43.93969727 C38.82387483 43.0733982 40.803351 42.47749139 43 42 C43 42.99 43 43.98 43 45 C41.97261719 45.37511719 40.94523437 45.75023437 39.88671875 46.13671875 C32.48950691 48.86158358 25.23310817 51.66136539 18.13671875 55.1171875 C13.55035727 57.01210102 9.55545045 54.99853555 5.08203125 53.55859375 C-1.81540255 52.30848851 -8.28085666 54.50442703 -14.8125 56.5625 C-22.62190083 59 -22.62190083 59 -26 59 C-26 58.01 -26 57.02 -26 56 C-25.38479492 55.85900879 -24.76958984 55.71801758 -24.13574219 55.57275391 C-21.33925632 54.9287499 -18.54464107 54.27696083 -15.75 53.625 C-14.78191406 53.40328125 -13.81382813 53.1815625 -12.81640625 52.953125 C-11.88183594 52.73398437 -10.94726562 52.51484375 -9.984375 52.2890625 C-9.12553711 52.09006348 -8.26669922 51.89106445 -7.38183594 51.68603516 C-5.00586863 51.00169033 -3.06635106 50.36458243 -1 49 C-0.18129815 45.43793339 -0.18129815 45.43793339 0 42 C-0.66 42 -1.32 42 -2 42 C-2 42.66 -2 43.32 -2 44 C-2.66 44 -3.32 44 -4 44 C-4 32.78 -4 21.56 -4 10 C-2.68 10 -1.36 10 0 10 C0 6.7 0 3.4 0 0 Z M3 34 C3 35.65 3 37.3 3 39 C3.33 39 3.66 39 4 39 C4 37.35 4 35.7 4 34 C3.67 34 3.34 34 3 34 Z M-1 36 C0 40 0 40 0 40 Z M1 37 C2 40 2 40 2 40 Z"/>
<path transform="translate(229,26)" fill="#111A39" d="M0 0 C2.75329021 1.79562405 4.52627461 3.05254922 6 6 C6.08372659 7.52148326 6.10730027 9.04655778 6.09765625 10.5703125 C6.09443359 11.46621094 6.09121094 12.36210938 6.08789062 13.28515625 C6.07951172 14.22230469 6.07113281 15.15945312 6.0625 16.125 C6.05798828 17.06988281 6.05347656 18.01476562 6.04882812 18.98828125 C6.03702357 21.32558387 6.02055759 23.66276061 6 26 C3.69 26 1.38 26 -1 26 C-1.06058594 24.86820313 -1.12117188 23.73640625 -1.18359375 22.5703125 C-1.26799917 21.08852855 -1.35264717 19.6067584 -1.4375 18.125 C-1.47681641 17.37863281 -1.51613281 16.63226563 -1.55664062 15.86328125 C-1.71573624 11.80013136 -1.71573624 11.80013136 -3 8 C-4.65 8 -6.3 8 -8 8 C-9.585869 11.171738 -9.37866445 14.63513822 -9.5625 18.125 C-9.60568359 18.87910156 -9.64886719 19.63320313 -9.69335938 20.41015625 C-9.7994832 22.27321888 -9.90025001 24.13658524 -10 26 C-12.64 26 -15.28 26 -18 26 C-18 17.75 -18 9.5 -18 1 C-15 1 -12 1 -9 1 C-5.89951072 -0.55024464 -3.42105782 -0.28992015 0 0 Z"/>
<path transform="translate(341,26)" fill="#111A39" d="M0 0 C3.71757722 1.33271636 5.50403429 2.33871239 7.875 5.5 C9 8 9 8 9 11 C3.9816499 11.2895202 1.91453739 11.00114533 -2 8 C-4.63537508 7.99364754 -4.63537508 7.99364754 -7 9 C-9.25162602 11.75471394 -9.25162602 11.75471394 -8.9375 14.5625 C-8.21249551 17.20881652 -8.21249551 17.20881652 -5.625 18.375 C-2.91393731 19.2642918 -2.91393731 19.2642918 0 18 C0.33 17.34 0.66 16.68 1 16 C3.64 16 6.28 16 9 16 C8.78977719 19.67889913 8.02023532 20.97774115 5.5 23.75 C1.66767641 26.66109196 -2.25717709 27.2809931 -7 27 C-10.89949563 25.74921838 -12.63435042 24.40413901 -15.375 21.375 C-17.45316426 17.0588127 -17.70599788 13.70665253 -17 9 C-14.01351172 1.53377929 -7.59417242 -1.24295836 0 0 Z"/>
<path transform="translate(368.8515625,26.98046875)" fill="#111A39" d="M0 0 C1.6484375 1.26953125 1.6484375 1.26953125 4.1484375 4.01953125 C4.1484375 5.33953125 4.1484375 6.65953125 4.1484375 8.01953125 C1.8384375 8.01953125 -0.4715625 8.01953125 -2.8515625 8.01953125 C-3.1815625 7.35953125 -3.5115625 6.69953125 -3.8515625 6.01953125 C-5.1715625 6.01953125 -6.4915625 6.01953125 -7.8515625 6.01953125 C-7.8515625 6.67953125 -7.8515625 7.33953125 -7.8515625 8.01953125 C-7.15289062 8.21289062 -6.45421875 8.40625 -5.734375 8.60546875 C-4.82429688 8.86585937 -3.91421875 9.12625 -2.9765625 9.39453125 C-2.07164062 9.64976563 -1.16671875 9.905 -0.234375 10.16796875 C2.1484375 11.01953125 2.1484375 11.01953125 4.1484375 13.01953125 C4.81349774 19.89182041 4.81349774 19.89182041 2.7109375 23.45703125 C-1.02773411 25.73670906 -4.49971996 26.22317033 -8.8515625 26.01953125 C-12.95369939 24.52784511 -14.42224459 23.66350812 -16.8515625 20.01953125 C-16.8515625 18.69953125 -16.8515625 17.37953125 -16.8515625 16.01953125 C-14.5415625 16.01953125 -12.2315625 16.01953125 -9.8515625 16.01953125 C-9.5215625 17.00953125 -9.1915625 17.99953125 -8.8515625 19.01953125 C-6.37889485 18.67508244 -6.37889485 18.67508244 -3.8515625 18.01953125 C-3.5215625 17.35953125 -3.1915625 16.69953125 -2.8515625 16.01953125 C-3.53863281 15.90996094 -4.22570312 15.80039062 -4.93359375 15.6875 C-6.28517578 15.44966797 -6.28517578 15.44966797 -7.6640625 15.20703125 C-8.55738281 15.05621094 -9.45070313 14.90539063 -10.37109375 14.75 C-13.07536196 13.95362495 -14.13407105 13.21682983 -15.8515625 11.01953125 C-17.04281377 7.78613495 -17.06937164 6.51246772 -15.6640625 3.33203125 C-11.85694858 -1.52532099 -5.593302 -2.96185401 0 0 Z"/>
<path transform="translate(54,0)" fill="#01ADA7" d="M0 0 C0.66 0 1.32 0 2 0 C2 3.96 2 7.92 2 12 C2.99 12 3.98 12 5 12 C5.33 25.53 5.66 39.06 6 53 C5.34 53 4.68 53 4 53 C4 52.01 4 51.02 4 50 C3.34 50 2.68 50 2 50 C2 52.31 2 54.62 2 57 C1.34 57 0.68 57 0 57 C0 55.02 0 53.04 0 51 C-0.66 51 -1.32 51 -2 51 C-2 51.66 -2 52.32 -2 53 C-2.66 53 -3.32 53 -4 53 C-4 39.47 -4 25.94 -4 12 C-2.68 12 -1.36 12 0 12 C0 8.04 0 4.08 0 0 Z"/>
<path transform="translate(111,20)" fill="#111A39" d="M0 0 C0.99 0 1.98 0 3 0 C3 2.31 3 4.62 3 7 C4.98 7 6.96 7 9 7 C9 8.98 9 10.96 9 13 C7.02 13 5.04 13 3 13 C3.33 16.63 3.66 20.26 4 24 C5.98 24.33 7.96 24.66 10 25 C10 27.31 10 29.62 10 32 C8.58376784 32.05447047 7.16691809 32.09300508 5.75 32.125 C4.96109375 32.14820313 4.1721875 32.17140625 3.359375 32.1953125 C0.66154164 31.97198192 -0.79295277 31.57511491 -3 30 C-5.10275694 26.22429492 -5.21873025 22.95222657 -5.125 18.6875 C-5.09792969 17.08455078 -5.09792969 17.08455078 -5.0703125 15.44921875 C-5.03550781 14.23685547 -5.03550781 14.23685547 -5 13 C-6.32 13 -7.64 13 -9 13 C-8.43009348 9.40642281 -7.13617523 7.82750729 -4.5 5.375 C-1.88193354 2.96389084 -1.88193354 2.96389084 0 0 Z"/>
<path transform="translate(40,19)" fill="#FF6019" d="M0 0 C0.66 0 1.32 0 2 0 C2 2.97 2 5.94 2 9 C2.99 9 3.98 9 5 9 C5.33 18.9 5.66 28.8 6 39 C5.01 39 4.02 39 3 39 C2.34 38.34 1.68 37.68 1 37 C1.33 39.31 1.66 41.62 2 44 C1.01 43.67 0.02 43.34 -1 43 C-0.67 41.35 -0.34 39.7 0 38 C-0.66 38 -1.32 38 -2 38 C-2 38.66 -2 39.32 -2 40 C-2.66 40 -3.32 40 -4 40 C-4 29.77 -4 19.54 -4 9 C-2.68 9 -1.36 9 0 9 C0 6.03 0 3.06 0 0 Z M3 30 C3 31.65 3 33.3 3 35 C3.33 35 3.66 35 4 35 C4 33.35 4 31.7 4 30 C3.67 30 3.34 30 3 30 Z M-1 32 C0 35 0 35 0 35 Z M1 33 C2 35 2 35 2 35 Z"/>
<path transform="translate(11,23)" fill="#FF6019" d="M0 0 C0.66 0 1.32 0 2 0 C2 2.97 2 5.94 2 9 C3.32 9 4.64 9 6 9 C6.33 17.58 6.66 26.16 7 35 C6.01 35 5.02 35 4 35 C4 34.34 4 33.68 4 33 C3.34 33 2.68 33 2 33 C2.33 34.98 2.66 36.96 3 39 C1.515 39.495 1.515 39.495 0 40 C0.33 37.69 0.66 35.38 1 33 C0.34 33 -0.32 33 -1 33 C-1 33.66 -1 34.32 -1 35 C-1.99 35 -2.98 35 -4 35 C-3.67 26.42 -3.34 17.84 -3 9 C-2.01 9 -1.02 9 0 9 C0 6.03 0 3.06 0 0 Z M4 26 C4 27.65 4 29.3 4 31 C4.33 31 4.66 31 5 31 C5 29.35 5 27.7 5 26 C4.67 26 4.34 26 4 26 Z M0 27 C1 31 1 31 1 31 Z M-2 28 C-1 31 -1 31 -1 31 Z M2 28 C3 31 3 31 3 31 Z"/>
<path transform="translate(312,27)" fill="#111A39" d="M0 0 C2.64 0 5.28 0 8 0 C8 8.25 8 16.5 8 25 C5.36 25 2.72 25 0 25 C0 16.75 0 8.5 0 0 Z"/>
<path transform="translate(312,17)" fill="#111A39" d="M0 0 C2.64 0 5.28 0 8 0 C8 2.31 8 4.62 8 7 C5.36 7 2.72 7 0 7 C0 4.69 0 2.38 0 0 Z"/>
</svg>